# xmcd
#
# Track frame offsets:
#	150
#	7714
#	24077
#	40683
#	61329
#	88264
#	112473
#	131146
#	149082
#	170535
#	187554
#	193557
#	212420
#	232482
#	256331
#	277684
#	293928
#	319125
#	337085
#
# Disc length: 4711 seconds
#
# Revision: 0
# Processed by: cddbd v1.5.1PL0 Copyright (c) Steve Scherf et al.
# Submitted via: dBpowerAMP V4.0
#
DISCID=18126513
DTITLE=hip hop - hip hop
DYEAR=2005
DGENRE=Hip-Hop
TTITLE0=uuuu
TTITLE1=2pac fucking with the wrong n----a
TTITLE2=tragedy khadafi love of my life 
TTITLE3=capone n noreaga bloody money 
TTITLE4=uuuu
TTITLE5=yery
TTITLE6=jay-z deaththreats 
TTITLE7=gh
TTITLE8=kj
TTITLE9=fhfh
TTITLE10=fhh
TTITLE11=fhf
TTITLE12=westside connection 
TTITLE13=spice 1 killerfornia 
TTITLE14=snoop dogg from da church to da palace 
TTITLE15=hfhfhf
TTITLE16=outlawz runnin on e 
TTITLE17=akon ghetto 
TTITLE18=tytrye
EXTD=hiphop
EXTT0=
EXTT1=
EXTT2=
EXTT3=
EXTT4=
EXTT5=
EXTT6=
EXTT7=
EXTT8=
EXTT9=
EXTT10=
EXTT11=
EXTT12=
EXTT13=
EXTT14=
EXTT15=
EXTT16=
EXTT17=
EXTT18=
PLAYORDER=
